<?xml version="1.0" ?><svg height="64px" id="Слой_1" style="enable-background:new 0 0 64 64;" version="1.1" viewBox="0 0 64 64" width="64px" xml:space="preserve" xmlns="http://www.w3.org/2000/svg" xmlns:xlink="http://www.w3.org/1999/xlink"><g id="row_5"><g id="ghost"><path d="M58,27.3c-1.2,3.6-3.4,7-6.7,9.5c-1.6,1.3-3.4,2.3-5.3,2.9c-0.9,0.3-2,0-2.4-0.9    C43.2,38.3,43,37.7,43,37c0-0.5,0.1-0.9,0.2-1.3l-6.2,0c0,0.6,0,1.2-0.3,1.7c-0.3,0.9-0.9,1.5-1.6,2c-1.1,0.7-2.4,0.6-3.6,0.1    c-1.7-0.7-3.3-1.6-4.7-2.7c-3.8-2.9-6.1-6.9-7.2-11c-0.4-1.5-2.6-1.2-2.6,0.3c0,6.4,2.8,12.9,8.5,17.3c1.3,1,2.6,1.8,4.1,2.5    c-1.6-0.2-3.1-0.5-4.6-1c-1.7-0.5-3.3-1.3-4.9-2.2C11.2,37.4,7,27.3,9,17.8c0.2-1.1-1.2-1.7-1.8-0.7C4.5,21.4,3,26.5,3,32    c0,16,13,29,29,29c8.8,0,16.1-6.7,16.9-15.4c1.2-0.6,2.4-1.4,3.6-2.3c5.1-4,7.9-9.7,8.4-15.5C61.1,26.1,58.6,25.6,58,27.3z" style="fill:#B2EBF2;"/><path d="M47.8,34.4c3.8-7.5,5.9-15.5,4.6-23.2c-2-12.3-19.6-12.3-21.7,0c-1.3,7.7,0.8,15.7,4.6,23.2    C37.8,39.5,45.2,39.5,47.8,34.4z" style="fill:#B2EBF2;"/><path d="M48,22.5c0,1.4-0.9,2.5-2,2.5s-2-1.1-2-2.5c0-1.4,0.9-2.5,2-2.5S48,21.1,48,22.5z M37,20    c-1.1,0-2,1.1-2,2.5c0,1.4,0.9,2.5,2,2.5s2-1.1,2-2.5C39,21.1,38.1,20,37,20z M41.5,28c-1.4,0-2.5,3.8-2.5,6s1.1,2,2.5,2    s2.5,0.2,2.5-2S42.9,28,41.5,28z" style="fill:#455A64;"/></g></g></svg>