<?xml version="1.0" encoding="UTF-8" standalone="no"?>
<!DOCTYPE svg PUBLIC "-//W3C//DTD SVG 1.1//EN" "http://www.w3.org/Graphics/SVG/1.1/DTD/svg11.dtd">
<svg width="100%" height="100%" viewBox="0 0 2000 2000" version="1.1" xmlns="http://www.w3.org/2000/svg" xmlns:xlink="http://www.w3.org/1999/xlink" xml:space="preserve" serif="http://www.serif.com/" style="fill-rule:evenodd;clip-rule:evenodd;stroke-linejoin:round;stroke-miterlimit:2;">
    <g transform="matrix(0.706991,0.707223,-0.707223,0.706991,1008.27,-428.074)">
        <path d="M738.53,577.83C694.73,519.67 627.12,477.71 553.32,474.77C476.32,470.23 400.44,506.85 350.13,564.09C311.97,608.09 293.81,666.36 293.13,724.02C292.823,834.26 292.783,944.52 293.01,1054.8C291.72,1069.4 304.91,1079.65 318.72,1078.11C630.72,1078.97 942.83,1077.11 1254.79,1079.11C1253.79,1147.33 1254.67,1215.55 1259.64,1283.58C1170.64,1348.36 1066.39,1394.07 957.37,1411.06C943.2,1414.31 919.27,1410.51 916.14,1429.95C914.79,1466.57 916.02,1503.32 915.59,1539.95C913.5,1552.83 923.59,1566.02 937,1565.84C1068.78,1555.66 1196.81,1506.84 1302.27,1427.38C1341.27,1478.05 1396.93,1517.99 1461.27,1527.62C1552.19,1543.82 1647.77,1499.95 1702.13,1426.83C1736.55,1380.33 1748.69,1321.44 1748.45,1264.51C1748.14,1159.79 1749.37,1055.07 1747.84,950.41C1749.01,933.78 1733.36,925.32 1718.58,926.61C1407.58,926 1096.58,926.98 785.7,926.12C783.86,864.53 788.4,802.69 781.7,741.28C781,732.73 779,721.07 788,716C883.28,650.85 992.91,603.67 1108.24,590.91C1120.76,590.6 1126.52,576.49 1125.66,565.64C1125.66,530.64 1126.52,495.52 1125.23,460.55C1125.72,445.95 1111.3,437.55 1098.05,440.18C968.35,450.78 842.58,499.79 738.53,577.83ZM1400.55,1073.76C1477.55,1073.64 1554.55,1073.33 1631.55,1073.94C1632.16,1135.53 1631.8,1197.12 1631.8,1258.72C1632.29,1305.65 1602.9,1352.34 1558.36,1368.84C1510.08,1387.49 1451.06,1369.02 1421.49,1326.69C1407.27,1306.68 1399.81,1282.64 1400.2,1258.1C1400.43,1196.69 1400,1135.23 1400.55,1073.76ZM418.78,743C420.25,684.11 474.12,632.33 533.32,634.72C593.93,633.55 648.53,686.93 649.7,747.35C650.99,810.35 650.19,873.35 650.07,936.35C573,938.06 496,936.89 418.9,937C418.54,872.29 418.66,807.63 418.78,743Z" style="fill:white;"/>
    </g>
</svg>
